<svg id="Layer_1" data-name="Layer 1" xmlns="http://www.w3.org/2000/svg" viewBox="0 0 138 138"><path d="M20.78,56.32,3.52,47.89a2,2,0,0,1,0-3.34L22.91,30A2,2,0,0,1,26,31.64V53.22a2.07,2.07,0,0,1-.9,1.67c-.7.5-1.42,1-2.16,1.42a2,2,0,0,1-2.14,0ZM53,115.54,32.34,101.77A3,3,0,0,1,31,99.31V25.17A2.94,2.94,0,0,1,34,22.23h.13a3,3,0,0,1,1.49.49L54.26,35.11a7.4,7.4,0,0,1,3.3,6.16V113.1A2.94,2.94,0,0,1,54.62,116h-.13a3,3,0,0,1-1.48-.49Zm22.67-62v4.29a.12.12,0,0,0,.12.12h9.33a.15.15,0,0,1,.09,0,.11.11,0,0,1,0,.09v5.87a.12.12,0,0,1-.13.12H75.8a.11.11,0,0,0-.11.08.09.09,0,0,0,0,0v7.2a.14.14,0,0,1-.13.12H68.49a.13.13,0,0,1-.13-.12h0V47a.12.12,0,0,1,0-.09.13.13,0,0,1,.1,0h19.1a.13.13,0,0,1,.12.13h0v6.24a.12.12,0,0,1-.07.11l0,0H75.8a.11.11,0,0,0-.12.12Zm12,5.68a13,13,0,1,1,13,12.86A12.79,12.79,0,0,1,87.72,59.18Zm19,0a6,6,0,1,0-6,6A5.83,5.83,0,0,0,106.74,59.18ZM124,63.72h-1.55a.12.12,0,0,0-.13.12h0V71.3a.12.12,0,0,1-.12.13h-6.78a.11.11,0,0,1-.09,0,.12.12,0,0,1,0-.08V47a.12.12,0,0,1,0-.08.11.11,0,0,1,.09,0h10.13a8.79,8.79,0,0,1,8.87,8.87,7.7,7.7,0,0,1-3.69,6.5.12.12,0,0,0,0,.16l4.69,8.89a.12.12,0,0,1-.05.17l-.06,0h-7.21a.12.12,0,0,1-.11-.07l-3.83-7.6a.14.14,0,0,0-.11-.07Zm-1.69-6a.13.13,0,0,0,.12.13H125a2.14,2.14,0,0,0,2.42-2.25A2.21,2.21,0,0,0,125,53.31h-2.55a.12.12,0,0,0-.12.12Zm-39.64,32v9.32H75.91V89.72l-7.51-15a.13.13,0,0,1,0-.17l.06,0h7.26a.17.17,0,0,1,.12.08l3.31,7.67a.13.13,0,0,0,.16.08.14.14,0,0,0,.07-.08l3.42-7.67a.13.13,0,0,1,.12-.08h7.26a.14.14,0,0,1,.12.13.13.13,0,0,1,0,.06l-7.62,15a.14.14,0,0,0,0,.06Z" style="fill:#ec692d"/><path d="M86.7,86.05A12.87,12.87,0,1,1,99.57,98.77,12.64,12.64,0,0,1,86.7,86.05Zm18.81,0A5.94,5.94,0,1,0,99.57,92a5.77,5.77,0,0,0,5.94-5.91Zm8.54,4V74a.12.12,0,0,1,.13-.12h6.53a.12.12,0,0,1,.12.12h0V88.9a3.14,3.14,0,0,0,3.4,3.13,3,3,0,0,0,3.28-3.13V74a.12.12,0,0,1,0-.08.11.11,0,0,1,.09,0h6.63a.12.12,0,0,1,.12.12V90.08c0,5.22-4.14,8.69-10.16,8.69S114.05,95.3,114.05,90.08Z" style="fill:#ec692d"/></svg>